<svg width="85" height="22" viewBox="0 0 85 22" fill="none" xmlns="http://www.w3.org/2000/svg">
<path d="M8.36 10.9396L0 0.999609H3.44L10.12 8.17961L16.78 0.999609H20.24L11.88 10.9396L20.08 20.9996H16.7L10.08 13.3396L3.44 20.9996H0.0200005L8.38 10.9396H8.36Z" fill="#140B2B" fill-opacity="0.87"/>
<path d="M19.22 10.9196C19.22 8.09961 20.26 5.67961 22.32 3.65961C24.38 1.63961 26.84 0.619609 29.72 0.619609C32.6 0.619609 35.02 1.63961 37.06 3.67961C39.1 5.71961 40.12 8.15961 40.12 11.0196C40.12 13.8796 39.1 16.3396 37.04 18.3396C34.98 20.3596 32.48 21.3596 29.56 21.3596C26.98 21.3596 24.66 20.4596 22.6 18.6796C20.34 16.6996 19.2 14.1196 19.2 10.8996L19.22 10.9196ZM22.26 10.9596C22.26 13.1796 23 14.9796 24.48 16.4196C25.96 17.8396 27.66 18.5596 29.6 18.5596C31.7 18.5596 33.46 17.8396 34.92 16.3796C36.36 14.9196 37.08 13.1196 37.08 11.0196C37.08 8.91961 36.36 7.09961 34.94 5.65961C33.52 4.19961 31.78 3.47961 29.68 3.47961C27.58 3.47961 25.84 4.19961 24.4 5.65961C22.96 7.09961 22.26 8.85961 22.26 10.9796V10.9596Z" fill="#140B2B" fill-opacity="0.87"/>
<path d="M41.86 10.9196C41.86 8.09961 42.9 5.67961 44.96 3.65961C47.02 1.63961 49.48 0.619609 52.36 0.619609C55.24 0.619609 57.66 1.63961 59.7 3.67961C61.74 5.71961 62.76 8.15961 62.76 11.0196C62.76 13.8796 61.74 16.3396 59.68 18.3396C57.62 20.3596 55.12 21.3596 52.2 21.3596C49.62 21.3596 47.3 20.4596 45.24 18.6796C42.98 16.6996 41.84 14.1196 41.84 10.8996L41.86 10.9196ZM44.9 10.9596C44.9 13.1796 45.64 14.9796 47.12 16.4196C48.6 17.8396 50.3 18.5596 52.24 18.5596C54.34 18.5596 56.1 17.8396 57.56 16.3796C59 14.9196 59.72 13.1196 59.72 11.0196C59.72 8.91961 59 7.09961 57.58 5.65961C56.16 4.19961 54.42 3.47961 52.32 3.47961C50.22 3.47961 48.48 4.19961 47.04 5.65961C45.6 7.09961 44.9 8.85961 44.9 10.9796V10.9596Z" fill="#140B2B" fill-opacity="0.87"/>
<path d="M75.78 10.5796H84.04V11.2396C84.04 12.7396 83.86 14.0796 83.5 15.2196C83.16 16.2996 82.58 17.2996 81.76 18.2196C79.9 20.2996 77.54 21.3596 74.68 21.3596C71.82 21.3596 69.48 20.3396 67.5 18.3196C65.5 16.2996 64.5 13.8596 64.5 11.0196C64.5 8.17961 65.52 5.65961 67.54 3.63961C69.56 1.61961 72.04 0.599609 74.94 0.599609C76.5 0.599609 77.96 0.919609 79.32 1.55961C80.62 2.19961 81.88 3.23961 83.14 4.65961L81 6.71961C79.36 4.53961 77.36 3.43961 75 3.43961C72.88 3.43961 71.12 4.15961 69.68 5.61961C68.24 7.05961 67.54 8.83961 67.54 10.9996C67.54 13.1596 68.34 15.0596 69.94 16.4996C71.44 17.8396 73.06 18.4996 74.8 18.4996C76.28 18.4996 77.62 17.9996 78.8 16.9996C79.98 15.9796 80.64 14.7796 80.78 13.3796H75.8V10.5396L75.78 10.5796Z" fill="#140B2B" fill-opacity="0.87"/>
</svg>
