<svg width="118" height="22" viewBox="0 0 118 22" fill="none" xmlns="http://www.w3.org/2000/svg">
<g clip-path="url(#clip0_5813_7569)">
<path d="M30.9565 0.767334L19.2947 10.9453L30.9565 21.128H23.3542L15.4922 14.2627L7.63582 21.128H0.0345001L11.6963 10.9453L0.0345001 0.767334H7.63582L15.4988 7.63267L23.3542 0.767334H30.9565Z" fill="#F13B28"/>
<path d="M58.0327 5.74955V16.1402C58.0287 17.4617 57.4994 18.7282 56.5606 19.6627C55.6217 20.5973 54.3493 21.124 53.0216 21.128H37.5197C36.1918 21.124 34.9196 20.5973 33.9807 19.6627C33.0417 18.7282 32.5126 17.4617 32.5085 16.1402V5.74955C32.5139 4.42882 33.0435 3.16376 33.9823 2.2304C34.9212 1.29692 36.1927 0.77108 37.5197 0.767334H53.0216C54.3486 0.77108 55.6201 1.29692 56.5588 2.2304C57.4976 3.16376 58.0274 4.42882 58.0327 5.74955ZM53.0216 6.48218C53.0213 6.28856 52.944 6.10295 52.8067 5.96603C52.6691 5.82912 52.4828 5.75188 52.2884 5.75136H38.2529C38.0584 5.75213 37.8723 5.82937 37.7349 5.96629C37.5975 6.10321 37.5201 6.28869 37.5197 6.48218V15.4113C37.5201 15.6047 37.5975 15.7901 37.735 15.9269C37.8724 16.0635 38.0586 16.1406 38.2529 16.1411H52.2884C52.4827 16.1406 52.6689 16.0635 52.8063 15.9269C52.9436 15.7901 53.0211 15.6047 53.0216 15.4113V6.48218Z" fill="#F13B28"/>
<path d="M87.6708 5.74955V16.1402C87.6672 17.4619 87.138 18.7283 86.1991 19.663C85.2601 20.5975 83.9877 21.1243 82.6598 21.128H67.1579C65.83 21.124 64.5578 20.5973 63.6189 19.6627C62.6799 18.7282 62.1508 17.4617 62.1468 16.1402V5.74955C62.1522 4.42882 62.6821 3.16389 63.6208 2.23066C64.5596 1.2973 65.8311 0.771338 67.1579 0.767334H82.6598C83.9866 0.77108 85.2583 1.29692 86.197 2.2304C87.1358 3.16376 87.6656 4.42882 87.6708 5.74955ZM82.6598 6.48218C82.6595 6.28856 82.5822 6.10295 82.4449 5.96603C82.3074 5.82912 82.121 5.75188 81.9266 5.75136H67.8911C67.6968 5.75239 67.5107 5.82976 67.3734 5.96655C67.2361 6.10347 67.1586 6.28869 67.1579 6.48218V15.4113C67.1586 15.6046 67.2361 15.7898 67.3735 15.9266C67.5107 16.0633 67.6968 16.1404 67.8911 16.1411H81.9266C82.1209 16.1406 82.3071 16.0635 82.4445 15.9269C82.5818 15.7901 82.6593 15.6047 82.6598 15.4113V6.48218Z" fill="#F13B28"/>
<path d="M101.806 8.44952H113.9C114.804 8.45133 115.67 8.80925 116.309 9.44527C116.948 10.0813 117.308 10.9433 117.31 11.8429V17.7338C117.308 18.6334 116.948 19.4957 116.309 20.1319C115.67 20.768 114.804 21.1262 113.9 21.128H96.796C95.4684 21.124 94.1962 20.5973 93.2574 19.6626C92.3187 18.7281 91.7896 17.4617 91.7859 16.1402V5.75045C91.7907 4.4296 92.3201 3.16428 93.2588 2.23079C94.1975 1.29718 95.469 0.77108 96.796 0.767334H117.309L114.803 5.7542H97.5292C97.3349 5.75497 97.1487 5.83222 97.0113 5.96913C96.8739 6.10605 96.7965 6.29153 96.796 6.48503V15.4141C96.7965 15.6076 96.8739 15.7929 97.0113 15.9296C97.1487 16.0664 97.335 16.1435 97.5292 16.144H111.957C112.048 16.144 112.134 16.1082 112.198 16.0445C112.262 15.981 112.298 15.8947 112.298 15.8048V13.7774C112.298 13.6875 112.262 13.6012 112.198 13.5377C112.134 13.474 112.048 13.4383 111.957 13.4383H101.806V8.44952Z" fill="#F13B28"/>
</g>
<defs>
<clipPath id="clip0_5813_7569">
<rect width="118" height="22" fill="white"/>
</clipPath>
</defs>
</svg>
